# xmcd
# 
# Track frame offsets:
#     150
#     14140
#     31680
#     48895
#     65070
#     79045
#     95077
#     106552
#     124125
#     136827
#     153400
#     169728
#     183828
# 
# Disc length: 2636
# 
# Revision: 1
# Processed by: cddbd v1.5.2PL0 Copyright (c) Steve Scherf et al.
# Submitted via: fre:ac v1.0.17
# 
DISCID=a00a4a0d
DTITLE=BACKYARD BABIES - Stockholm Syndrome
DYEAR=2003
DGENRE=Hard Rock
TTITLE0=Everybody Ready?!
TTITLE1=Earn The Crown
TTITLE2=A Song For The Outcast
TTITLE3=Minus Celsius
TTITLE4=Pigs For Swine
TTITLE5=One Sound
TTITLE6=Say When
TTITLE7=Year By Year
TTITLE8=Friends
TTITLE9=Be Myself And I
TTITLE10=You Tell Me You Love Me You Lie
TTITLE11=Please! Please! Please!
TTITLE12=Big Bad Wolf
EXTD=YEAR: 2003
EXTT0=
EXTT1=
EXTT2=
EXTT3=
EXTT4=
EXTT5=
EXTT6=
EXTT7=
EXTT8=
EXTT9=
EXTT10=
EXTT11=
EXTT12=
PLAYORDER=
